<svg xmlns="http://www.w3.org/2000/svg" xmlns:xlink="http://www.w3.org/1999/xlink" version="1.1" x="0px" y="0px" viewBox="0 0 53 66.25" style="enable-background:new 0 0 53 53;" xml:space="preserve"><g><g><g><path d="M23.1901188,14.1149912v4.3798838h-2.9099731v-4.3798838c0-0.8000488,0.6499634-1.4500732,1.4599609-1.4500732     c0.4000244,0,0.7600098,0.1600342,1.0200195,0.4300537C23.0301456,13.3549814,23.1901188,13.7148447,23.1901188,14.1149912z"/></g><g><path d="M32.7101364,14.1149912v4.3798838h-2.9100323v-4.3798838c0-0.8000488,0.6400146-1.4500732,1.4500122-1.4500732     c0.4099731,0,0.7600079,0.1600342,1.0300274,0.4300537C32.5400925,13.3549814,32.7101364,13.7148447,32.7101364,14.1149912z"/></g></g><g><g><path d="M28.7945919,50.3100586c-0.8390884,0-1.6556778-0.3084183-2.2856808-0.8714676     c-0.720005-0.6442719-1.1326885-1.5673256-1.1326885-2.5320854v-8.9802895c0-0.6212234,0.503233-1.123909,1.1239071-1.123909     s1.123909,0.5026855,1.123909,1.123909v8.9802895c0,0.3314629,0.136097,0.6354904,0.3835983,0.856102     c0.2524414,0.2260971,0.5745754,0.3314629,0.9181137,0.2919502c11.4591408-1.277565,19.8741837-11.324688,19.1574745-22.8732815     C47.4098663,14.338418,38.7253723,5.6544728,27.8819656,4.980567     c-6.0453949-0.3720751-11.7960949,1.6913495-16.1891022,5.8214922     c-4.3968511,4.1323366-6.8186312,9.7299252-6.8186312,15.7610531c0,6.595274,2.9546485,12.7482319,8.1066246,16.8805714     c0.4845762,0.3885384,0.5619545,1.0964661,0.1739645,1.5804939c-0.3890867,0.4851227-1.0953712,0.5608559-1.5799465,0.1734161     C5.8878341,40.6361084,2.6264155,33.844368,2.6264155,26.5631123c0-6.5612526,2.743367-12.9029903,7.5271101-17.3997192     c4.8501463-4.5592904,11.1935301-6.8367405,17.8678322-6.4262505     c11.9728031,0.7430522,21.5616932,10.332489,22.3052921,22.3058414     c0.7907982,12.7460384-8.500103,23.8347492-21.1517487,25.2462215     C29.04813,50.3034706,28.9208126,50.3100586,28.7945919,50.3100586z"/></g></g><g><path d="M29.6700993,36.5649414c-0.1300049,1.6400146-1.5,2.9199219-3.1699829,2.9199219    c-0.8800049,0-1.6799927-0.3598633-2.25-0.9399414c-0.5200195-0.5100098-0.8599854-1.1999512-0.9199829-1.9799805H29.6700993z"/></g><g><path d="M35.7820702,20.496357v2.3139362c0,0.485405-0.3934975,0.8789024-0.8789024,0.8789024H18.0860653    c-0.485405,0-0.8789024-0.3934975-0.8789024-0.8789024V20.496357c0-0.485405,0.3934975-0.8789043,0.8789024-0.8789043h16.8171024    C35.3885727,19.6174526,35.7820702,20.010952,35.7820702,20.496357z"/></g><path d="M18.8001041,24.7648945V32.625c0,1.5599365,1.2700195,2.8299561,2.8300171,2.8299561h9.7399902   c1.5599957,0,2.8300152-1.2700195,2.8300152-2.8299561v-7.8601055H18.8001041z M29.2051945,31.5239277h-5.4101563   c-0.2763672,0-0.5-0.2236328-0.5-0.5s0.2236328-0.5,0.5-0.5h5.4101563c0.2763672,0,0.5,0.2236328,0.5,0.5   S29.4815617,31.5239277,29.2051945,31.5239277z M29.2051945,28.2163105h-5.4101563c-0.2763672,0-0.5-0.2236328-0.5-0.5   s0.2236328-0.5,0.5-0.5h5.4101563c0.2763672,0,0.5,0.2236328,0.5,0.5S29.4815617,28.2163105,29.2051945,28.2163105z"/></g><text x="0" y="68" fill="#000000" font-size="5px" font-weight="bold" font-family="'Helvetica Neue', Helvetica, Arial-Unicode, Arial, Sans-serif">Created by VectorsLab</text><text x="0" y="73" fill="#000000" font-size="5px" font-weight="bold" font-family="'Helvetica Neue', Helvetica, Arial-Unicode, Arial, Sans-serif">from the Noun Project</text></svg>