<svg xmlns="http://www.w3.org/2000/svg" xmlns:xlink="http://www.w3.org/1999/xlink" xmlns:serif="http://www.serif.com/" viewBox="0 0 128 160" version="1.1" xml:space="preserve" style="" x="0px" y="0px" fill-rule="evenodd" clip-rule="evenodd" stroke-linejoin="round" stroke-miterlimit="2"><g><path d="M92,62c16.557,0 30,13.443 30,30c0,16.557 -13.443,30 -30,30c-16.557,0 -30,-13.443 -30,-30c0,-16.557 13.443,-30 30,-30Zm0,4c-14.35,0 -26,11.65 -26,26c0,14.35 11.65,26 26,26c14.35,0 26,-11.65 26,-26c0,-14.35 -11.65,-26 -26,-26Zm-5,6l16,0c0.738,-0 1.415,0.406 1.763,1.056c0.348,0.651 0.31,1.44 -0.099,2.053c0,0 -4.743,7.115 -4.743,7.115l3.973,1.987c0.548,0.274 0.94,0.784 1.064,1.383c0.125,0.6 -0.033,1.223 -0.427,1.692l-21,25c-0.624,0.743 -1.691,0.931 -2.531,0.446c-0.84,-0.485 -1.211,-1.504 -0.88,-2.415l7.424,-20.417l-5.536,-3.164c-0.846,-0.483 -1.22,-1.504 -0.888,-2.419l4,-11c0.288,-0.791 1.039,-1.317 1.88,-1.317Zm1.401,4l-2.945,8.1l5.536,3.164c0.846,0.483 1.22,1.504 0.888,2.419l-4.133,11.366c-0,0 12.091,-14.394 12.091,-14.394l-3.732,-1.866c-0.514,-0.257 -0.892,-0.721 -1.039,-1.276c-0.147,-0.554 -0.049,-1.145 0.269,-1.622l3.927,-5.891l-10.862,0Zm-30.401,16l-14,0l0,-16l14,0l-0,16Zm6.509,-20l-56.509,0c-1.105,0 -2,-0.895 -2,-2l0,-6c0,-1.105 0.895,-2 2,-2l67.996,0c-4.543,2.43 -8.47,5.862 -11.487,10Zm27.491,-14l-17.478,0l-2.667,-6l15.945,0l4.334,6c-0.045,0 -0.089,0 -0.134,0Zm-30.989,48l-45.011,0c-1.104,-0 -2,-0.896 -2,-2c0,-1.104 0.896,-2 2,-2l18,0l-0,-4c-0,-1.105 0.895,-2 2,-2l22.233,0c0.414,3.526 1.369,6.888 2.778,10Zm-17.682,-94.767c1.861,0.595 3.88,-0.241 4.775,-1.978l1.118,-2.171c0.343,-0.666 1.029,-1.084 1.778,-1.084c0.749,0 1.435,0.418 1.778,1.084l1.118,2.171c0.895,1.737 2.914,2.573 4.775,1.978l2.326,-0.744c0.713,-0.229 1.494,-0.039 2.024,0.49c0.529,0.53 0.719,1.311 0.49,2.024l-0.744,2.326c-0.595,1.861 0.241,3.88 1.978,4.775l2.171,1.118c0.666,0.343 1.084,1.029 1.084,1.778c-0,0.749 -0.418,1.435 -1.084,1.778l-2.171,1.118c-1.737,0.895 -2.573,2.914 -1.978,4.775l0.744,2.326c0.229,0.713 0.039,1.494 -0.49,2.024c-0.53,0.529 -1.311,0.719 -2.024,0.49l-2.326,-0.744c-1.861,-0.595 -3.88,0.241 -4.775,1.978l-1.118,2.171c-0.343,0.666 -1.029,1.084 -1.778,1.084c-0.749,0 -1.435,-0.418 -1.778,-1.084l-1.118,-2.171c-0.895,-1.737 -2.914,-2.573 -4.775,-1.978l-2.326,0.744c-0.713,0.229 -1.494,0.039 -2.024,-0.49c-0.529,-0.53 -0.719,-1.311 -0.49,-2.024l0.744,-2.326c0.595,-1.861 -0.241,-3.88 -1.978,-4.775l-2.171,-1.118c-0.666,-0.343 -1.084,-1.029 -1.084,-1.778c-0,-0.749 0.418,-1.435 1.084,-1.778l2.171,-1.118c1.737,-0.895 2.573,-2.914 1.978,-4.775l-0.744,-2.326c-0.229,-0.713 -0.039,-1.494 0.49,-2.024c0.53,-0.529 1.311,-0.719 2.024,-0.49l2.326,0.744Zm7.671,4.767c-3.863,0 -7,3.137 -7,7c0,3.863 3.137,7 7,7c3.863,0 7,-3.137 7,-7c0,-3.863 -3.137,-7 -7,-7Zm0,4c1.656,0 3,1.344 3,3c0,1.656 -1.344,3 -3,3c-1.656,0 -3,-1.344 -3,-3c0,-1.656 1.344,-3 3,-3Zm-41.134,38l4.334,-6l15.945,0l-2.667,6l-17.612,0Zm7.222,-10l2.291,-3.171c0.376,-0.521 0.979,-0.829 1.621,-0.829l12.7,0l-1.778,4l-14.834,0Zm20.99,-4l10.922,0l0,4l-12.7,0l1.778,-4Zm14.922,0l10.922,0l1.778,4l-12.7,0l0,-4Zm15.3,0l12.7,0c0.642,-0 1.245,0.308 1.621,0.829l2.291,3.171l-14.834,0l-1.778,-4Zm-36.445,14l2.667,-6l14.478,0l0,6l-17.145,0Zm21.145,0l0,-6l14.478,0l2.667,6l-17.145,0Z"/></g><text x="0" y="143" fill="#000000" font-size="5px" font-weight="bold" font-family="'Helvetica Neue', Helvetica, Arial-Unicode, Arial, Sans-serif">Created by Febrian Hidayat</text><text x="0" y="148" fill="#000000" font-size="5px" font-weight="bold" font-family="'Helvetica Neue', Helvetica, Arial-Unicode, Arial, Sans-serif">from the Noun Project</text></svg>